<mxfile host="app.diagrams.net" agent="Mozilla/5.0 (Windows NT 10.0; Win64; x64) AppleWebKit/537.36 (KHTML, like Gecko) Chrome/137.0.0.0 Safari/537.36 Edg/137.0.0.0" version="27.1.3">
  <diagram name="Page-1" id="amP1yffAcudwAEjUBTru">
    <mxGraphModel dx="1034" dy="604" grid="1" gridSize="10" guides="1" tooltips="1" connect="1" arrows="1" fold="1" page="1" pageScale="1" pageWidth="850" pageHeight="1100" math="0" shadow="0">
      <root>
        <mxCell id="0" />
        <mxCell id="1" parent="0" />
        <mxCell id="KNfR1toDVQ-TMS3GXkil-1" value="Người dùng" style="shape=umlActor;verticalLabelPosition=bottom;verticalAlign=top;html=1;outlineConnect=0;" vertex="1" parent="1">
          <mxGeometry x="140" y="220" width="30" height="60" as="geometry" />
        </mxCell>
        <mxCell id="KNfR1toDVQ-TMS3GXkil-2" value="Phần mềm&amp;nbsp;" style="swimlane;whiteSpace=wrap;html=1;" vertex="1" parent="1">
          <mxGeometry x="210" y="130" width="400" height="440" as="geometry" />
        </mxCell>
        <mxCell id="KNfR1toDVQ-TMS3GXkil-4" value="Chọn hình ảnh" style="ellipse;whiteSpace=wrap;html=1;" vertex="1" parent="KNfR1toDVQ-TMS3GXkil-2">
          <mxGeometry x="40" y="50" width="120" height="50" as="geometry" />
        </mxCell>
        <mxCell id="KNfR1toDVQ-TMS3GXkil-5" value="Nhận diện ảnh" style="ellipse;whiteSpace=wrap;html=1;" vertex="1" parent="KNfR1toDVQ-TMS3GXkil-2">
          <mxGeometry x="40" y="120" width="120" height="50" as="geometry" />
        </mxCell>
        <mxCell id="KNfR1toDVQ-TMS3GXkil-6" value="Kết quả nhận diện" style="ellipse;whiteSpace=wrap;html=1;" vertex="1" parent="KNfR1toDVQ-TMS3GXkil-2">
          <mxGeometry x="40" y="220" width="120" height="50" as="geometry" />
        </mxCell>
        <mxCell id="KNfR1toDVQ-TMS3GXkil-7" value="Huấn luyện mô hình" style="ellipse;whiteSpace=wrap;html=1;" vertex="1" parent="KNfR1toDVQ-TMS3GXkil-2">
          <mxGeometry x="250" y="210" width="120" height="50" as="geometry" />
        </mxCell>
        <mxCell id="KNfR1toDVQ-TMS3GXkil-9" value="Cập nhật" style="ellipse;whiteSpace=wrap;html=1;" vertex="1" parent="KNfR1toDVQ-TMS3GXkil-2">
          <mxGeometry x="250" y="60" width="120" height="50" as="geometry" />
        </mxCell>
        <mxCell id="KNfR1toDVQ-TMS3GXkil-10" value="Chỉnh sửa" style="ellipse;whiteSpace=wrap;html=1;" vertex="1" parent="KNfR1toDVQ-TMS3GXkil-2">
          <mxGeometry x="250" y="140" width="120" height="50" as="geometry" />
        </mxCell>
        <mxCell id="KNfR1toDVQ-TMS3GXkil-17" value="" style="endArrow=block;html=1;rounded=0;entryX=1;entryY=0.5;entryDx=0;entryDy=0;exitX=0;exitY=0.5;exitDx=0;exitDy=0;endFill=1;dashed=1;" edge="1" parent="KNfR1toDVQ-TMS3GXkil-2" source="KNfR1toDVQ-TMS3GXkil-7" target="KNfR1toDVQ-TMS3GXkil-5">
          <mxGeometry width="50" height="50" relative="1" as="geometry">
            <mxPoint x="180" y="250" as="sourcePoint" />
            <mxPoint x="230" y="200" as="targetPoint" />
          </mxGeometry>
        </mxCell>
        <mxCell id="KNfR1toDVQ-TMS3GXkil-18" value="&amp;lt;&amp;lt;include&amp;gt;&amp;gt;" style="text;html=1;align=center;verticalAlign=middle;whiteSpace=wrap;rounded=0;" vertex="1" parent="KNfR1toDVQ-TMS3GXkil-2">
          <mxGeometry x="210" y="180" width="60" height="30" as="geometry" />
        </mxCell>
        <mxCell id="KNfR1toDVQ-TMS3GXkil-19" value="" style="endArrow=block;html=1;rounded=0;entryX=0.5;entryY=0;entryDx=0;entryDy=0;exitX=0.5;exitY=1;exitDx=0;exitDy=0;endFill=1;dashed=1;" edge="1" parent="KNfR1toDVQ-TMS3GXkil-2" source="KNfR1toDVQ-TMS3GXkil-5" target="KNfR1toDVQ-TMS3GXkil-6">
          <mxGeometry width="50" height="50" relative="1" as="geometry">
            <mxPoint x="290" y="370" as="sourcePoint" />
            <mxPoint x="200" y="280" as="targetPoint" />
          </mxGeometry>
        </mxCell>
        <mxCell id="KNfR1toDVQ-TMS3GXkil-20" value="&amp;lt;&amp;lt;include&amp;gt;&amp;gt;" style="text;html=1;align=center;verticalAlign=middle;whiteSpace=wrap;rounded=0;" vertex="1" parent="KNfR1toDVQ-TMS3GXkil-2">
          <mxGeometry x="110" y="180" width="60" height="30" as="geometry" />
        </mxCell>
        <mxCell id="KNfR1toDVQ-TMS3GXkil-21" value="Quản lý dataset" style="ellipse;whiteSpace=wrap;html=1;" vertex="1" parent="KNfR1toDVQ-TMS3GXkil-2">
          <mxGeometry x="250" y="290" width="120" height="50" as="geometry" />
        </mxCell>
        <mxCell id="KNfR1toDVQ-TMS3GXkil-3" value="Quản trị viên" style="shape=umlActor;verticalLabelPosition=bottom;verticalAlign=top;html=1;outlineConnect=0;" vertex="1" parent="1">
          <mxGeometry x="660" y="220" width="30" height="60" as="geometry" />
        </mxCell>
        <mxCell id="KNfR1toDVQ-TMS3GXkil-11" value="" style="endArrow=none;html=1;rounded=0;entryX=0;entryY=0.5;entryDx=0;entryDy=0;" edge="1" parent="1" target="KNfR1toDVQ-TMS3GXkil-4">
          <mxGeometry width="50" height="50" relative="1" as="geometry">
            <mxPoint x="180" y="250" as="sourcePoint" />
            <mxPoint x="250" y="220" as="targetPoint" />
          </mxGeometry>
        </mxCell>
        <mxCell id="KNfR1toDVQ-TMS3GXkil-13" value="" style="endArrow=none;html=1;rounded=0;entryX=0;entryY=0.5;entryDx=0;entryDy=0;" edge="1" parent="1" target="KNfR1toDVQ-TMS3GXkil-6">
          <mxGeometry width="50" height="50" relative="1" as="geometry">
            <mxPoint x="180" y="250" as="sourcePoint" />
            <mxPoint x="210" y="320" as="targetPoint" />
          </mxGeometry>
        </mxCell>
        <mxCell id="KNfR1toDVQ-TMS3GXkil-14" value="" style="endArrow=none;html=1;rounded=0;exitX=1;exitY=0.5;exitDx=0;exitDy=0;" edge="1" parent="1" source="KNfR1toDVQ-TMS3GXkil-7">
          <mxGeometry width="50" height="50" relative="1" as="geometry">
            <mxPoint x="610" y="380" as="sourcePoint" />
            <mxPoint x="640" y="260" as="targetPoint" />
          </mxGeometry>
        </mxCell>
        <mxCell id="KNfR1toDVQ-TMS3GXkil-15" value="" style="endArrow=none;html=1;rounded=0;exitX=1;exitY=0.5;exitDx=0;exitDy=0;" edge="1" parent="1" source="KNfR1toDVQ-TMS3GXkil-10">
          <mxGeometry width="50" height="50" relative="1" as="geometry">
            <mxPoint x="630" y="390" as="sourcePoint" />
            <mxPoint x="640" y="260" as="targetPoint" />
          </mxGeometry>
        </mxCell>
        <mxCell id="KNfR1toDVQ-TMS3GXkil-16" value="" style="endArrow=none;html=1;rounded=0;exitX=1;exitY=0.5;exitDx=0;exitDy=0;" edge="1" parent="1" source="KNfR1toDVQ-TMS3GXkil-9">
          <mxGeometry width="50" height="50" relative="1" as="geometry">
            <mxPoint x="670" y="350" as="sourcePoint" />
            <mxPoint x="640" y="260" as="targetPoint" />
          </mxGeometry>
        </mxCell>
        <mxCell id="KNfR1toDVQ-TMS3GXkil-22" value="" style="endArrow=none;html=1;rounded=0;exitX=1;exitY=0.5;exitDx=0;exitDy=0;" edge="1" parent="1" source="KNfR1toDVQ-TMS3GXkil-21">
          <mxGeometry width="50" height="50" relative="1" as="geometry">
            <mxPoint x="400" y="340" as="sourcePoint" />
            <mxPoint x="640" y="260" as="targetPoint" />
          </mxGeometry>
        </mxCell>
      </root>
    </mxGraphModel>
  </diagram>
</mxfile>
